Coordinates
version=1
nRows=16
nColumns=28
inDegrees=yes

Units are S.I. units (second, meters, Newtons, ...)
Angles are in degrees.

endheader
time	pelvis_tilt	pelvis_list	pelvis_rotation	pelvis_tx	pelvis_ty	pelvis_tz	hip_flexion_r	hip_adduction_r	hip_rotation_r	knee_angle_r	ankle_angle_r	subtalar_angle_r	mtp_angle_r	hip_flexion_l	hip_adduction_l	hip_rotation_l	knee_angle_l	socket_flexion	socket_adduction	socket_rotation	socket_tx	socket_ty	socket_tz	foot_flex	lumbar_extension	lumbar_bending	lumbar_rotation
      0.00000000	      3.27158692	    -15.72035424	    -14.61330312	     -0.75356155	      0.99863378	      0.34602754	    -26.10933736	     11.64101845	      2.09017475	    -10.28534986	     -2.15815650	      7.79824485	     40.33702447	     25.58551461	    -18.78722619	      9.56179379	    -22.58184901	    -10.76345559	      0.00000000	      0.00000000	      0.00000000	     -0.00767809	      0.00000000	     -0.93964612	    -19.42018412	     13.24904880	     24.24779860
      0.00416667	      3.20116083	    -15.75647727	    -14.59281149	     -0.74819159	      0.99775227	      0.34559301	    -26.21573757	     11.59475813	      2.15511067	    -10.48451942	     -2.21001850	      7.79026134	     40.34961993	     25.40227631	    -18.72666430	      9.64269614	    -22.62886833	    -10.77632860	      0.00000000	      0.00000000	      0.00000000	     -0.00836386	      0.00000000	     -1.07907326	    -19.26117406	     13.31893635	     24.25277404
      0.00833333	      3.09657270	    -15.84678120	    -14.62410961	     -0.74276422	      0.99681545	      0.34512438	    -26.22515404	     11.58296209	      2.20822195	    -10.85005582	     -2.42674989	      7.71395162	     40.40005857	     25.17664442	    -18.74784231	      9.80747063	    -22.50635932	    -10.74779531	      0.00000000	      0.00000000	      0.00000000	     -0.00939343	      0.00000000	     -1.67306181	    -19.16351364	     13.43266374	     24.27464696
      0.01250000	      2.96485143	    -15.94154280	    -14.66168746	     -0.73705194	      0.99586332	      0.34465693	    -26.23391299	     11.57866499	      2.28875749	    -11.17743124	     -2.69421580	      7.57579892	     40.50149580	     24.96789947	    -18.77510339	      9.91299061	    -22.40993104	    -10.69874998	      0.00000000	      0.00000000	      0.00000000	     -0.01040865	      0.00000000	     -2.02668690	    -18.99408472	     13.57988265	     24.31810627
      0.01666667	      2.88506442	    -15.96867678	    -14.62420886	     -0.73102911	      0.99494025	      0.34413197	    -26.34020170	     11.52476630	      2.38434055	    -11.40283289	     -2.76378634	      7.55817923	     40.51731063	     24.77064774	    -18.69182557	      9.99450648	    -22.46794697	    -10.70920916	      0.00000000	      0.00000000	      0.00000000	     -0.01123776	      0.00000000	     -2.14765445	    -18.79881304	     13.65160200	     24.32058194
      0.02083333	      2.72436988	    -16.02399447	    -14.67196325	     -0.72511091	      0.99403485	      0.34365660	    -26.26130882	     11.49537940	      2.48031982	    -11.82916056	     -3.14281828	      7.33615644	     40.60381203	     24.57937719	    -18.68565397	     10.12878242	    -22.35302631	    -10.67270281	      0.00000000	      0.00000000	      0.00000000	     -0.01226202	      0.00000000	     -2.71428067	    -18.61958151	     13.74553822	     24.32654007
      0.02500000	      2.24921775	    -16.08472855	    -14.81817553	     -0.71892413	      0.99285476	      0.34334309	    -26.01059958	     11.59053790	      3.08707464	    -12.00681246	     -3.85317513	      5.91902217	     41.59870235	     24.73831584	    -18.76063351	     10.26515064	    -22.34829797	    -10.62566347	      0.00000000	      0.00000000	      0.00000000	     -0.01314755	      0.00000000	     -3.00728570	    -18.04447893	     13.93365380	     24.44113610
      0.02916667	      2.18316941	    -16.10326299	    -14.75467684	     -0.71259634	      0.99203752	      0.34274489	    -26.09985695	     11.53835347	      3.18432190	    -12.27532904	     -3.93383066	      5.90940463	     41.60529019	     24.52339702	    -18.65207711	     10.34238821	    -22.42289897	    -10.63858824	      0.00000000	      0.00000000	      0.00000000	     -0.01402071	      0.00000000	     -3.13041368	    -17.86262662	     13.99843044	     24.43187944
      0.03333333	      2.10784713	    -16.09079980	    -14.74514845	     -0.70663161	      0.99137368	      0.34213286	    -25.99949112	     11.44769598	      3.24891579	    -12.83326423	     -4.30536741	      5.77308421	     41.60396863	     24.29532923	    -18.53199123	     10.50383111	    -22.40436882	    -10.61989961	      0.00000000	      0.00000000	      0.00000000	     -0.01486885	      0.00000000	     -3.65045005	    -17.76543743	     13.98512200	     24.36169814
      0.03750000	      2.04417902	    -16.09901656	    -14.65050722	     -0.70012161	      0.99063557	      0.34147984	    -26.07575172	     11.39741718	      3.34552017	    -13.12336283	     -4.41736567	      5.74144836	     41.60552706	     24.08366883	    -18.40443579	     10.54524401	    -22.48071969	    -10.61107094	      0.00000000	      0.00000000	      0.00000000	     -0.01581966	      0.00000000	     -3.74081212	    -17.54739167	     14.05407239	     24.34747001
      0.04166667	      1.77494594	    -15.86421687	    -14.66567564	     -0.69379182	      0.98994531	      0.34105674	    -25.67408212	     11.17185569	      3.25512183	    -13.73608281	     -5.38302631	      4.89969309	     41.73188707	     24.05393089	    -18.10792075	     10.56825322	    -22.42206089	    -10.54164041	      0.00000000	      0.00000000	      0.00000000	     -0.01641990	      0.00000000	     -4.14576000	    -17.11355516	     13.87284649	     24.08661697
      0.04583333	      1.45350406	    -15.83506222	    -14.61441954	     -0.68742503	      0.98915277	      0.34042523	    -25.41308493	     11.21912530	      3.58468782	    -14.09279780	     -6.11959208	      3.58054811	     42.84535013	     24.17482147	    -17.98478034	     10.77645853	    -22.57825971	    -10.56986444	      0.00000000	      0.00000000	      0.00000000	     -0.01710613	      0.00000000	     -4.44438879	    -16.64267199	     13.96382781	     23.90338496
      0.05000000	      1.41858173	    -15.82044731	    -14.47848932	     -0.68090302	      0.98870783	      0.33968857	    -25.45564118	     11.17613962	      3.73252555	    -14.43153337	     -6.23391755	      3.57325157	     42.84246538	     23.95238397	    -17.81754306	     10.83246694	    -22.67792297	    -10.54959210	      0.00000000	      0.00000000	      0.00000000	     -0.01795389	      0.00000000	     -4.51380714	    -16.44387270	     13.99953511	     23.88748328
      0.05416667	      1.28737136	    -15.42369408	    -14.39995487	     -0.67467291	      0.98838964	      0.33917363	    -25.02943912	     10.79717779	      3.48750512	    -15.20899982	     -7.14920999	      2.90012084	     42.83752056	     23.87075470	    -17.30542637	     10.81638490	    -22.74733624	    -10.52715776	      0.00000000	      0.00000000	      0.00000000	     -0.01815341	      0.00000000	     -4.83032709	    -16.11932273	     13.57573993	     23.52813123
      0.05833333	      1.22184485	    -15.23817631	    -14.29619470	     -0.66839932	      0.98815987	      0.33846558	    -24.77857918	     10.60139011	      3.43375999	    -15.89495249	     -7.72193846	      2.52367476	     42.84666592	     23.72672568	    -16.98189281	     10.81069988	    -22.90149902	    -10.52618454	      0.00000000	      0.00000000	      0.00000000	     -0.01860081	      0.00000000	     -5.00435059	    -15.90766604	     13.41604006	     23.31903442
      0.06250000	      1.19981100	    -15.06897791	    -14.15646165	     -0.66230203	      0.98806397	      0.33771633	    -24.57670953	     10.44959992	      3.54765255	    -16.54926099	     -8.16942200	      2.31866643	     42.83090127	     23.55373865	    -16.66147958	     10.91182878	    -23.03402173	    -10.50634848	      0.00000000	      0.00000000	      0.00000000	     -0.01898592	      0.00000000	     -5.17197128	    -15.77037680	     13.23083059	     23.18251547
